<mxfile host="app.diagrams.net" modified="2022-10-06T22:29:30.343Z" agent="5.0 (Windows NT 10.0; Win64; x64) AppleWebKit/537.36 (KHTML, like Gecko) Chrome/105.0.0.0 Safari/537.36" etag="PZjj2-NOLRY0Qoj-BdqD" version="20.3.7" type="github" pages="3">
  <diagram id="rrkDkE5E40T_uh_sfdIn" name="CompradorUseCases">
    <mxGraphModel dx="633" dy="275" grid="1" gridSize="10" guides="1" tooltips="1" connect="1" arrows="1" fold="1" page="1" pageScale="1" pageWidth="827" pageHeight="1169" math="0" shadow="0">
      <root>
        <mxCell id="0" />
        <mxCell id="1" parent="0" />
        <mxCell id="MyWpFqUBvWVRNcMNB60x-1" value="Comprador" style="shape=umlActor;verticalLabelPosition=bottom;verticalAlign=top;html=1;outlineConnect=0;" parent="1" vertex="1">
          <mxGeometry x="30" y="170" width="20" height="40" as="geometry" />
        </mxCell>
        <mxCell id="MyWpFqUBvWVRNcMNB60x-3" value="" style="swimlane;startSize=0;" parent="1" vertex="1">
          <mxGeometry x="120" y="40" width="240" height="280" as="geometry" />
        </mxCell>
        <mxCell id="MyWpFqUBvWVRNcMNB60x-10" value="CSU01: Comprar Item&amp;nbsp;" style="ellipse;whiteSpace=wrap;html=1;" parent="MyWpFqUBvWVRNcMNB60x-3" vertex="1">
          <mxGeometry x="40" y="20" width="130" height="30" as="geometry" />
        </mxCell>
        <mxCell id="MyWpFqUBvWVRNcMNB60x-15" value="CSU02: Visualizar histórico" style="ellipse;whiteSpace=wrap;html=1;" parent="MyWpFqUBvWVRNcMNB60x-3" vertex="1">
          <mxGeometry x="40" y="70" width="150" height="30" as="geometry" />
        </mxCell>
        <mxCell id="Q_TgrsyGTBNrr4Tatgzc-1" value="CSU03: Realizar reembolso" style="ellipse;whiteSpace=wrap;html=1;" parent="MyWpFqUBvWVRNcMNB60x-3" vertex="1">
          <mxGeometry x="40" y="120" width="160" height="30" as="geometry" />
        </mxCell>
        <mxCell id="ebb925ZoXjZ2kxUgz7pC-1" value="CSU04: Fazer pergunta" style="ellipse;whiteSpace=wrap;html=1;fillColor=none;" parent="MyWpFqUBvWVRNcMNB60x-3" vertex="1">
          <mxGeometry x="40" y="180" width="150" height="30" as="geometry" />
        </mxCell>
        <mxCell id="w_rliTgE7HYg7oNSr5M0-1" value="CSU05: Buscar produto" style="ellipse;whiteSpace=wrap;html=1;fillColor=none;" parent="MyWpFqUBvWVRNcMNB60x-3" vertex="1">
          <mxGeometry x="40" y="230" width="140" height="40" as="geometry" />
        </mxCell>
        <mxCell id="MyWpFqUBvWVRNcMNB60x-9" value="Projeto Ágora" style="text;html=1;strokeColor=none;fillColor=none;align=center;verticalAlign=middle;whiteSpace=wrap;rounded=0;" parent="1" vertex="1">
          <mxGeometry x="120" y="10" width="100" height="30" as="geometry" />
        </mxCell>
        <mxCell id="MyWpFqUBvWVRNcMNB60x-11" value="" style="endArrow=none;html=1;rounded=0;entryX=0;entryY=0.5;entryDx=0;entryDy=0;" parent="1" source="MyWpFqUBvWVRNcMNB60x-1" target="MyWpFqUBvWVRNcMNB60x-10" edge="1">
          <mxGeometry width="50" height="50" relative="1" as="geometry">
            <mxPoint x="170" y="150" as="sourcePoint" />
            <mxPoint x="220" y="100" as="targetPoint" />
          </mxGeometry>
        </mxCell>
        <mxCell id="MyWpFqUBvWVRNcMNB60x-13" value="" style="endArrow=none;html=1;rounded=0;exitX=0;exitY=0.5;exitDx=0;exitDy=0;" parent="1" source="MyWpFqUBvWVRNcMNB60x-15" target="MyWpFqUBvWVRNcMNB60x-1" edge="1">
          <mxGeometry width="50" height="50" relative="1" as="geometry">
            <mxPoint x="160" y="100" as="sourcePoint" />
            <mxPoint x="50" y="50" as="targetPoint" />
          </mxGeometry>
        </mxCell>
        <mxCell id="Q_TgrsyGTBNrr4Tatgzc-4" value="" style="endArrow=none;html=1;rounded=0;exitX=0;exitY=0.5;exitDx=0;exitDy=0;" parent="1" source="Q_TgrsyGTBNrr4Tatgzc-1" target="MyWpFqUBvWVRNcMNB60x-1" edge="1">
          <mxGeometry width="50" height="50" relative="1" as="geometry">
            <mxPoint x="240" y="180" as="sourcePoint" />
            <mxPoint x="40" y="120" as="targetPoint" />
          </mxGeometry>
        </mxCell>
        <mxCell id="ebb925ZoXjZ2kxUgz7pC-2" value="" style="endArrow=none;html=1;rounded=0;exitX=0;exitY=0.5;exitDx=0;exitDy=0;" parent="1" source="ebb925ZoXjZ2kxUgz7pC-1" target="MyWpFqUBvWVRNcMNB60x-1" edge="1">
          <mxGeometry width="50" height="50" relative="1" as="geometry">
            <mxPoint x="170" y="220" as="sourcePoint" />
            <mxPoint x="220" y="170" as="targetPoint" />
          </mxGeometry>
        </mxCell>
        <mxCell id="w_rliTgE7HYg7oNSr5M0-2" value="" style="endArrow=none;html=1;rounded=0;entryX=0;entryY=0.5;entryDx=0;entryDy=0;" parent="1" source="MyWpFqUBvWVRNcMNB60x-1" target="w_rliTgE7HYg7oNSr5M0-1" edge="1">
          <mxGeometry width="50" height="50" relative="1" as="geometry">
            <mxPoint x="240" y="330" as="sourcePoint" />
            <mxPoint x="290" y="280" as="targetPoint" />
          </mxGeometry>
        </mxCell>
      </root>
    </mxGraphModel>
  </diagram>
  <diagram id="YgbZcGoNeetk5yWTW941" name="VendedorUseCase">
    <mxGraphModel dx="764" dy="332" grid="1" gridSize="10" guides="1" tooltips="1" connect="1" arrows="1" fold="1" page="1" pageScale="1" pageWidth="827" pageHeight="1169" math="0" shadow="0">
      <root>
        <mxCell id="0" />
        <mxCell id="1" parent="0" />
        <mxCell id="fL1Wgi9M96XN7IhVNGbs-1" value="Vendedor" style="shape=umlActor;verticalLabelPosition=bottom;verticalAlign=top;html=1;outlineConnect=0;" parent="1" vertex="1">
          <mxGeometry x="40" y="80" width="30" height="60" as="geometry" />
        </mxCell>
        <mxCell id="fL1Wgi9M96XN7IhVNGbs-2" value="" style="whiteSpace=wrap;html=1;aspect=fixed;fillColor=none;" parent="1" vertex="1">
          <mxGeometry x="120" y="40" width="360" height="360" as="geometry" />
        </mxCell>
        <mxCell id="D7_sqQ1QvXnTQAAvOCPC-1" value="CSU06: Postar oferta" style="ellipse;whiteSpace=wrap;html=1;fillColor=none;" parent="1" vertex="1">
          <mxGeometry x="200" y="80" width="130" height="50" as="geometry" />
        </mxCell>
        <mxCell id="SgMtcw3tXn0fbScPWtu_-1" value="" style="endArrow=none;html=1;rounded=0;entryX=0;entryY=0.5;entryDx=0;entryDy=0;" parent="1" source="fL1Wgi9M96XN7IhVNGbs-1" target="D7_sqQ1QvXnTQAAvOCPC-1" edge="1">
          <mxGeometry width="50" height="50" relative="1" as="geometry">
            <mxPoint x="160" y="190" as="sourcePoint" />
            <mxPoint x="210" y="140" as="targetPoint" />
          </mxGeometry>
        </mxCell>
        <mxCell id="SgMtcw3tXn0fbScPWtu_-2" value="CSU07: Responder perguntas" style="ellipse;whiteSpace=wrap;html=1;fillColor=none;" parent="1" vertex="1">
          <mxGeometry x="200" y="140" width="180" height="50" as="geometry" />
        </mxCell>
        <mxCell id="SgMtcw3tXn0fbScPWtu_-3" value="" style="endArrow=none;html=1;rounded=0;exitX=0;exitY=0.5;exitDx=0;exitDy=0;" parent="1" source="SgMtcw3tXn0fbScPWtu_-2" target="fL1Wgi9M96XN7IhVNGbs-1" edge="1">
          <mxGeometry width="50" height="50" relative="1" as="geometry">
            <mxPoint x="160" y="190" as="sourcePoint" />
            <mxPoint x="210" y="140" as="targetPoint" />
          </mxGeometry>
        </mxCell>
        <mxCell id="SgMtcw3tXn0fbScPWtu_-4" value="CSU08: Retirada de saldo" style="ellipse;whiteSpace=wrap;html=1;fillColor=none;" parent="1" vertex="1">
          <mxGeometry x="200" y="200" width="160" height="50" as="geometry" />
        </mxCell>
        <mxCell id="SgMtcw3tXn0fbScPWtu_-5" value="" style="endArrow=none;html=1;rounded=0;entryX=0;entryY=0.5;entryDx=0;entryDy=0;" parent="1" source="fL1Wgi9M96XN7IhVNGbs-1" target="SgMtcw3tXn0fbScPWtu_-4" edge="1">
          <mxGeometry width="50" height="50" relative="1" as="geometry">
            <mxPoint x="150" y="230" as="sourcePoint" />
            <mxPoint x="200" y="180" as="targetPoint" />
          </mxGeometry>
        </mxCell>
        <mxCell id="SgMtcw3tXn0fbScPWtu_-6" value="Projeto Ágora" style="text;html=1;strokeColor=none;fillColor=none;align=center;verticalAlign=middle;whiteSpace=wrap;rounded=0;" parent="1" vertex="1">
          <mxGeometry x="120" y="10" width="90" height="30" as="geometry" />
        </mxCell>
        <mxCell id="cGkObw80GdSM_S5zPnrm-2" value="CSU09: Visualizar todas as vendas" style="ellipse;whiteSpace=wrap;html=1;fillColor=none;" parent="1" vertex="1">
          <mxGeometry x="200" y="260" width="200" height="40" as="geometry" />
        </mxCell>
        <mxCell id="cGkObw80GdSM_S5zPnrm-3" value="" style="endArrow=none;html=1;rounded=0;exitX=0;exitY=0.5;exitDx=0;exitDy=0;" parent="1" source="cGkObw80GdSM_S5zPnrm-2" target="fL1Wgi9M96XN7IhVNGbs-1" edge="1">
          <mxGeometry width="50" height="50" relative="1" as="geometry">
            <mxPoint x="140" y="250" as="sourcePoint" />
            <mxPoint x="190" y="200" as="targetPoint" />
          </mxGeometry>
        </mxCell>
      </root>
    </mxGraphModel>
  </diagram>
  <diagram id="paK83U_ZtDMXM7t8x7yQ" name="EspecialistaUseCases">
    <mxGraphModel dx="528" dy="230" grid="1" gridSize="10" guides="1" tooltips="1" connect="1" arrows="1" fold="1" page="1" pageScale="1" pageWidth="827" pageHeight="1169" math="0" shadow="0">
      <root>
        <mxCell id="0" />
        <mxCell id="1" parent="0" />
        <mxCell id="k__TyBbboYCGXpk2sloh-1" value="Especialista" style="shape=umlActor;verticalLabelPosition=bottom;verticalAlign=top;html=1;outlineConnect=0;fillColor=none;" parent="1" vertex="1">
          <mxGeometry x="40" y="100" width="30" height="60" as="geometry" />
        </mxCell>
        <mxCell id="k__TyBbboYCGXpk2sloh-2" value="" style="whiteSpace=wrap;html=1;aspect=fixed;fillColor=none;" parent="1" vertex="1">
          <mxGeometry x="120" y="40" width="280" height="280" as="geometry" />
        </mxCell>
        <mxCell id="k__TyBbboYCGXpk2sloh-4" value="CSU10: Aceitar proposta" style="ellipse;whiteSpace=wrap;html=1;fillColor=none;" parent="1" vertex="1">
          <mxGeometry x="160" y="80" width="150" height="40" as="geometry" />
        </mxCell>
        <mxCell id="k__TyBbboYCGXpk2sloh-5" value="" style="endArrow=none;html=1;rounded=0;entryX=0;entryY=0.5;entryDx=0;entryDy=0;" parent="1" source="k__TyBbboYCGXpk2sloh-1" target="k__TyBbboYCGXpk2sloh-4" edge="1">
          <mxGeometry width="50" height="50" relative="1" as="geometry">
            <mxPoint x="190" y="170" as="sourcePoint" />
            <mxPoint x="240" y="120" as="targetPoint" />
          </mxGeometry>
        </mxCell>
        <mxCell id="k__TyBbboYCGXpk2sloh-6" value="CSU11: Avaliar produto" style="ellipse;whiteSpace=wrap;html=1;fillColor=none;" parent="1" vertex="1">
          <mxGeometry x="160" y="130" width="140" height="40" as="geometry" />
        </mxCell>
        <mxCell id="k__TyBbboYCGXpk2sloh-7" value="" style="endArrow=none;html=1;rounded=0;entryX=0;entryY=0.5;entryDx=0;entryDy=0;" parent="1" source="k__TyBbboYCGXpk2sloh-1" target="k__TyBbboYCGXpk2sloh-6" edge="1">
          <mxGeometry width="50" height="50" relative="1" as="geometry">
            <mxPoint x="190" y="170" as="sourcePoint" />
            <mxPoint x="240" y="120" as="targetPoint" />
          </mxGeometry>
        </mxCell>
        <mxCell id="k__TyBbboYCGXpk2sloh-8" value="CSU12: Retirar Saldo" style="ellipse;whiteSpace=wrap;html=1;fillColor=none;" parent="1" vertex="1">
          <mxGeometry x="160" y="180" width="130" height="40" as="geometry" />
        </mxCell>
        <mxCell id="k__TyBbboYCGXpk2sloh-9" value="" style="endArrow=none;html=1;rounded=0;exitX=0;exitY=0.411;exitDx=0;exitDy=0;exitPerimeter=0;" parent="1" source="k__TyBbboYCGXpk2sloh-8" target="k__TyBbboYCGXpk2sloh-1" edge="1">
          <mxGeometry width="50" height="50" relative="1" as="geometry">
            <mxPoint x="170" y="200" as="sourcePoint" />
            <mxPoint x="220" y="150" as="targetPoint" />
          </mxGeometry>
        </mxCell>
        <mxCell id="k__TyBbboYCGXpk2sloh-11" value="Projeto Ágora" style="text;html=1;strokeColor=none;fillColor=none;align=center;verticalAlign=middle;whiteSpace=wrap;rounded=0;" parent="1" vertex="1">
          <mxGeometry x="120" y="10" width="90" height="30" as="geometry" />
        </mxCell>
      </root>
    </mxGraphModel>
  </diagram>
</mxfile>
